<svg xmlns="http://www.w3.org/2000/svg" width="18.6325" height="20" viewBox="0 0 186.325 200"><path d="M131.795,263.059a4.821,4.821,0,0,0-3.63,7.722,93.3,93.3,0,0,1-107.1,143.866,4.821,4.821,0,0,0-5.545,7.416,103.158,103.158,0,0,0,82.2,40.99h.007a103.076,103.076,0,0,0,35.957-199.7,4.817,4.817,0,0,0-1.893-.292Zm13.239,16.449A93.214,93.214,0,1,1,34.869,428.441a103.087,103.087,0,0,0,18.769,1.836h.016A103.225,103.225,0,0,0,156.8,327.124v-.007a103.093,103.093,0,0,0-11.765-47.609Z" transform="translate(-14.552 -263.053)"/></svg>